<?xml version="1.0" standalone="no"?>
<!DOCTYPE svg PUBLIC "-//W3C//DTD SVG 20010904//EN"
 "http://www.w3.org/TR/2001/REC-SVG-20010904/DTD/svg10.dtd">
<svg version="1.0" xmlns="http://www.w3.org/2000/svg"
 width="400.000000pt" height="400.000000pt" viewBox="0 0 400.000000 400.000000"
 preserveAspectRatio="xMidYMid meet">
<metadata>
Created by potrace 1.14, written by Peter Selinger 2001-2017
</metadata>
<g transform="translate(0.000000,400.000000) scale(0.100000,-0.100000)"
fill="#000000" stroke="none">
<path d="M0 2000 l0 -2000 2000 0 2000 0 0 2000 0 2000 -2000 0 -2000 0 0
-2000z m2738 1208 c5 -7 16 -42 23 -76 l12 -64 -160 -160 -161 -161 -17 74
c-9 41 -17 88 -17 104 0 27 -6 33 -62 57 -484 209 -1035 7 -1273 -467 -72
-142 -110 -337 -98 -493 30 -365 237 -665 567 -822 117 -55 222 -81 359 -87
294 -14 553 83 753 283 29 29 99 113 110 133 5 9 12 18 16 21 3 3 17 28 30 55
13 28 28 53 33 56 5 3 8 9 7 13 -2 8 17 62 31 89 20 38 49 225 49 317 0 153
-26 275 -87 412 -22 49 -29 57 -52 56 -29 -1 -140 21 -158 31 -8 4 43 62 145
163 l157 157 63 -16 c103 -26 102 -37 -14 -156 -55 -56 -103 -104 -108 -108
-6 -5 1 -29 16 -61 76 -155 101 -262 101 -433 0 -156 -1 -168 -37 -324 -3 -14
-10 -29 -16 -35 -5 -5 -10 -18 -10 -27 0 -32 -107 -239 -136 -264 -20 -17 -47
-65 -36 -65 5 0 10 -10 10 -22 0 -13 14 -79 30 -148 31 -125 51 -212 77 -325
8 -33 16 -67 20 -76 7 -18 -19 -29 -71 -29 -23 0 -34 6 -41 23 -6 13 -37 65
-70 115 -32 50 -82 129 -112 176 -29 48 -57 89 -62 91 -9 6 -44 -11 -66 -32
-7 -6 -23 -15 -35 -19 -12 -4 -28 -12 -35 -19 -7 -7 -34 -21 -60 -30 -27 -9
-55 -20 -64 -25 -9 -5 -59 -18 -112 -29 -246 -53 -538 -8 -741 114 -32 20 -60
34 -62 33 -1 -2 -53 -93 -115 -203 -61 -110 -115 -204 -120 -209 -5 -6 -38
-11 -74 -11 -104 -3 -105 -32 15 413 43 157 60 236 53 240 -20 13 -115 175
-145 247 -50 121 -69 210 -75 351 -7 150 6 257 43 372 111 343 388 606 741
704 67 19 104 22 263 22 210 0 269 -12 434 -84 l91 -40 105 105 c103 103 127
118 148 93z m117 -250 c0 -22 -65 -92 -356 -385 -547 -548 -513 -517 -538
-504 -12 7 -21 22 -21 34 0 16 123 145 433 455 363 364 436 432 457 430 20 -2
25 -9 25 -30z m-760 -253 c70 -15 215 -77 215 -92 0 -5 -44 -52 -97 -105 l-98
-97 -45 15 c-69 24 -192 15 -263 -20 -72 -35 -149 -119 -176 -191 -26 -70 -27
-180 -3 -247 40 -111 133 -193 252 -224 254 -65 489 174 425 431 l-17 68 100
100 100 100 27 -54 c72 -140 92 -290 60 -435 -18 -86 -75 -202 -131 -271 -82
-100 -241 -192 -367 -214 -210 -35 -415 29 -562 176 -312 312 -214 836 190
1021 113 52 260 66 390 39z m-56 -351 c9 -3 -17 -37 -77 -97 -50 -51 -94 -105
-97 -120 -19 -76 32 -147 107 -147 52 0 86 22 172 110 38 38 72 70 77 70 4 0
10 -18 14 -39 31 -183 -148 -353 -329 -312 -214 48 -292 300 -142 459 67 72
185 104 275 76z"/>
</g>
</svg>
